# xmcd
#
# Track frame offsets:
#	150
#	10766
#	22052
#	35240
#	44665
#	54335
#	66637
#	78662
#	87967
#	98183
#	108107
#	120855
#	132070
#	146062
#
# Disc length: 2090 seconds
#
# Revision: 1
# Processed by: cddbd v1.5.1PL0 Copyright (c) Steve Scherf et al.
# Submitted via: audiograbber 1.83.01
#
DISCID=bf08280e
DTITLE=Hank Locklin - Wanted
DYEAR=2003
DGENRE=Country-s
TTITLE0=Please Help Me I-M Falling
TTITLE1=Send Me The Pillow
TTITLE2=Happy Birthday To Me
TTITLE3=Geisha Girl
TTITLE4=Happy Journey
TTITLE5=From Here To There To You
TTITLE6=It-s A Little More Like Heaven
TTITLE7=Flaying South
TTITLE8=Let Me Be The One
TTITLE9=We- Re Conna Go  Fishing
TTITLE10=TraDaytime Love Affair
TTITLE11=Down On Me Knees
TTITLE12=Baby, I Need You
TTITLE13=I Was Coming Home To You
EXTD=
EXTT0=
EXTT1=
EXTT2=
EXTT3=
EXTT4=
EXTT5=
EXTT6=
EXTT7=
EXTT8=
EXTT9=
EXTT10=
EXTT11=
EXTT12=
EXTT13=
PLAYORDER=
